<svg width="4146" height="966" viewBox="0 0 4146 966" fill="none" xmlns="http://www.w3.org/2000/svg">
<path d="M399.077 56.2276C445.915 56.0741 492.005 67.5931 533.199 89.6797L541.371 94.2434L617.149 138.165C619.149 139.324 620.9 140.749 622.399 142.356C622.667 142.506 622.938 142.651 623.204 142.803C649.999 158.124 672.285 180.24 687.781 206.933C703.278 233.627 711.448 263.956 711.465 294.822V432.044C711.465 432.632 711.419 433.213 711.377 433.79V443.723C711.377 444.013 711.341 444.3 711.331 444.587V465.11C711.294 522.735 696.211 579.357 667.589 629.371C638.965 679.385 597.793 721.071 548.127 750.294L548.098 750.31L292.442 900.313C285.34 904.481 276.55 904.528 269.415 900.419L12.4023 752.307C5.30655 748.219 0.934205 740.647 0.933594 732.457V258.998C0.934205 250.883 5.22958 243.367 12.2235 239.252L257.022 95.1829L265.165 90.5595C306.214 68.2006 352.236 56.3818 399.077 56.2276ZM399.226 102.043C360 102.173 321.463 112.075 287.088 130.797L280.272 134.66L46.7489 272.092V719.213L280.75 854.065L524.906 710.787C567.692 685.607 603.169 649.701 627.828 606.613C652.488 563.522 665.481 514.743 665.515 465.094V365.483C665.274 353.345 662.004 341.454 655.926 330.928C649.608 319.987 640.515 310.904 629.573 304.59C618.63 298.276 606.219 294.953 593.586 294.956C590.373 294.956 587.175 295.171 584.01 295.597L582.981 470.568C582.931 506.212 573.587 541.231 555.867 572.161C539.235 601.193 515.757 625.683 487.531 643.525L481.835 647C481.768 647.039 481.693 647.081 481.626 647.119L325.089 736.962C324.785 737.136 324.458 737.264 324.149 737.423C323.902 737.551 323.655 737.678 323.404 737.796C322.974 737.999 322.543 738.19 322.106 738.364C321.859 738.462 321.611 738.556 321.361 738.646C320.88 738.817 320.399 738.972 319.913 739.109C319.705 739.169 319.498 739.234 319.287 739.288C318.797 739.412 318.305 739.511 317.812 739.601C317.528 739.653 317.245 739.708 316.961 739.751C316.578 739.806 316.196 739.848 315.813 739.885C315.446 739.92 315.078 739.941 314.708 739.958C314.371 739.974 314.033 739.989 313.694 739.989C313.212 739.99 312.731 739.974 312.248 739.944C312.103 739.935 311.959 739.926 311.816 739.914C311.182 739.864 310.553 739.78 309.922 739.676C309.846 739.663 309.772 739.644 309.698 739.631C309.117 739.529 308.543 739.405 307.967 739.257C307.738 739.199 307.509 739.146 307.282 739.079C306.787 738.935 306.294 738.781 305.805 738.602C305.62 738.535 305.437 738.465 305.254 738.393C304.727 738.185 304.204 737.958 303.687 737.707C303.551 737.641 303.419 737.567 303.285 737.498C302.908 737.307 302.521 737.131 302.152 736.916L156.769 652.504L156.591 652.385C156.194 652.148 155.809 651.897 155.427 651.638L154.801 651.236C154.133 650.752 153.507 650.227 152.907 649.684C152.753 649.545 152.609 649.396 152.46 649.252C152.125 648.933 151.788 648.618 151.476 648.282C151.268 648.061 151.076 647.827 150.879 647.597C149.726 646.25 148.741 644.791 147.941 643.241C147.456 642.308 147.043 641.337 146.688 640.333C146.571 640.001 146.447 639.672 146.345 639.335C146.267 639.074 146.206 638.808 146.135 638.544C146.033 638.153 145.92 637.763 145.838 637.366C145.769 637.032 145.728 636.691 145.674 636.352C145.613 635.975 145.537 635.599 145.494 635.217C145.488 635.159 145.486 635.098 145.48 635.039L145.434 634.413C145.401 633.967 145.383 633.519 145.375 633.07L145.361 632.697V334.851C145.361 334.666 145.372 334.481 145.375 334.298C145.387 333.864 145.415 333.434 145.45 333.001C145.482 332.595 145.531 332.194 145.584 331.793C145.625 331.49 145.665 331.186 145.719 330.883C145.803 330.401 145.903 329.924 146.016 329.452C146.07 329.232 146.122 329.012 146.181 328.796C146.319 328.29 146.487 327.795 146.658 327.303C146.73 327.1 146.791 326.894 146.867 326.693C147.052 326.205 147.261 325.73 147.478 325.26C147.566 325.071 147.653 324.881 147.747 324.694C147.977 324.229 148.217 323.77 148.478 323.322C148.597 323.116 148.724 322.913 148.851 322.711C149.101 322.31 149.365 321.917 149.64 321.532C149.837 321.259 150.044 320.993 150.253 320.727C150.457 320.465 150.662 320.204 150.879 319.952C151.152 319.632 151.435 319.318 151.73 319.012C151.985 318.745 152.252 318.49 152.519 318.237C152.759 318.009 152.999 317.783 153.251 317.565C153.602 317.259 153.968 316.971 154.338 316.685C154.527 316.541 154.712 316.392 154.906 316.253C155.421 315.882 155.955 315.536 156.502 315.208C156.551 315.179 156.6 315.149 156.65 315.12L157.069 314.866C157.176 314.806 157.273 314.73 157.382 314.672L447.414 143.862L447.429 143.847L452.469 140.999C467.061 133.058 482.663 127.256 498.791 123.728C467.655 109.378 433.686 101.93 399.226 102.043ZM337.005 430.135L336.08 677.812L458.629 607.493L463.058 604.794C484.97 590.939 503.194 571.927 516.107 549.388C529.882 525.345 537.141 498.114 537.165 470.404V470.299L538.075 315.686L337.005 430.135ZM535.45 165.502C512.655 165.64 490.302 171.802 470.65 183.355L470.635 183.34L191.177 347.945V619.513L290.264 677.036L291.249 416.699L291.278 416.058C291.293 415.619 291.3 415.181 291.339 414.744L291.368 414.356C291.901 409.306 294.079 404.746 297.349 401.218C297.775 400.758 298.224 400.317 298.691 399.891C298.751 399.836 298.795 399.766 298.855 399.711C299.123 399.472 299.41 399.254 299.69 399.025C300.006 398.768 300.33 398.521 300.66 398.28C300.841 398.148 301.025 398.019 301.211 397.892C301.659 397.585 302.114 397.287 302.584 397.012C302.662 396.966 302.743 396.924 302.822 396.878L534.809 264.873C552.681 254.577 572.943 249.146 593.571 249.14C614.246 249.134 634.557 254.571 652.465 264.904C656.332 267.135 660.052 269.588 663.621 272.227C660.979 257.395 655.778 243.076 648.155 229.945C636.711 210.23 620.25 193.879 600.461 182.564C580.672 171.252 558.244 165.365 535.45 165.502Z" fill="white"/>
<path d="M1110.02 773V251.359H1298.71C1355.38 251.359 1404.11 261.878 1444.9 282.915C1486.11 303.523 1517.67 333.362 1539.57 372.431C1561.89 411.501 1573.05 458.084 1573.05 512.18C1573.05 565.846 1561.89 612.214 1539.57 651.284C1517.24 690.353 1485.47 720.407 1444.25 741.444C1403.47 762.481 1354.95 773 1298.71 773H1110.02ZM1184.08 709.888H1298.71C1361.82 709.888 1410.77 692.5 1445.54 657.724C1480.75 622.948 1498.35 574.433 1498.35 512.18C1498.35 449.497 1480.96 400.982 1446.19 366.635C1411.41 331.859 1362.25 314.471 1298.71 314.471H1184.08V709.888ZM1835.73 780.728C1795.37 780.728 1760.38 772.571 1730.75 756.256C1701.13 739.512 1678.16 715.899 1661.85 685.416C1645.96 654.933 1638.02 619.298 1638.02 578.512C1638.02 537.725 1645.96 502.52 1661.85 472.896C1678.16 442.842 1700.92 419.658 1730.11 403.344C1759.3 387.029 1793.44 378.872 1832.51 378.872C1869.86 378.872 1902.06 386.385 1929.11 401.412C1956.58 416.438 1977.84 437.69 1992.86 465.168C2007.89 492.645 2015.4 525.274 2015.4 563.056V592.036H1707.57C1709.72 632.393 1721.95 663.949 1744.28 686.704C1767.03 709.029 1797.3 720.192 1835.08 720.192C1861.27 720.192 1883.38 714.825 1901.41 704.092C1919.45 692.929 1931.9 676.615 1938.77 655.148H2012.18C2002.74 695.076 1982.34 725.988 1951 747.884C1920.09 769.78 1881.66 780.728 1835.73 780.728ZM1710.15 539.228H1945.85C1942.42 507.457 1930.61 482.77 1910.43 465.168C1890.68 447.565 1864.49 438.764 1831.86 438.764C1799.66 438.764 1772.83 447.565 1751.36 465.168C1729.9 482.77 1716.16 507.457 1710.15 539.228ZM2135.63 773V441.984H2057.06V386.6H2136.27V297.083C2136.27 275.187 2142.28 258.873 2154.31 248.139C2166.33 237.406 2182.86 232.039 2203.89 232.039H2310.8V287.423H2207.11V386.6H2303.07V441.984H2207.76V773H2135.63ZM2390.89 773V461.304H2353.53V386.6H2430.81V458.728H2457.86C2468.59 435.114 2485.12 416.653 2507.45 403.344C2530.2 390.034 2556.82 383.38 2587.31 383.38H2618.86V445.204H2583.44C2544.8 445.204 2514.96 456.581 2493.93 479.336C2472.89 502.09 2462.37 532.788 2462.37 571.428V773H2390.89ZM2788.09 780.084C2744.3 780.084 2709.74 769.351 2684.41 747.884C2659.51 725.988 2647.06 697.437 2647.06 662.232C2647.06 625.309 2659.51 596.758 2684.41 576.58C2709.31 555.972 2745.16 545.668 2791.96 545.668H2923.98V528.28C2923.98 468.602 2891.13 438.764 2825.44 438.764C2771.78 438.764 2739.36 458.942 2728.2 499.3H2655.43C2661.87 461.089 2680.12 431.465 2710.17 410.428C2740.65 389.39 2779.51 378.872 2826.73 378.872C2880.4 378.872 2921.4 391.537 2949.74 416.868C2978.5 442.198 2992.88 478.692 2992.88 526.348V698.296H3027.66V773H2950.38V713.752H2923.33C2910.02 734.36 2891.78 750.675 2868.59 762.696C2845.41 774.288 2818.58 780.084 2788.09 780.084ZM2797.75 722.124C2820.94 722.124 2842.19 717.401 2861.51 707.956C2880.83 698.511 2896.07 685.631 2907.23 669.316C2918.4 653.001 2923.98 635.184 2923.98 615.864V598.476H2796.46C2742.37 598.476 2715.32 618.654 2715.32 659.012C2715.32 678.332 2722.62 693.788 2737.22 705.38C2751.81 716.543 2771.99 722.124 2797.75 722.124ZM3122.77 773V251.359H3311.46C3368.14 251.359 3416.87 261.878 3457.65 282.915C3498.87 303.523 3530.42 333.362 3552.32 372.431C3574.65 411.501 3585.81 458.084 3585.81 512.18C3585.81 565.846 3574.65 612.214 3552.32 651.284C3529.99 690.353 3498.22 720.407 3457.01 741.444C3416.22 762.481 3367.71 773 3311.46 773H3122.77ZM3196.83 709.888H3311.46C3374.58 709.888 3423.52 692.5 3458.3 657.724C3493.5 622.948 3511.1 574.433 3511.1 512.18C3511.1 449.497 3493.72 400.982 3458.94 366.635C3424.16 331.859 3375.01 314.471 3311.46 314.471H3196.83V709.888ZM3684.26 773V251.359H3937.35C3967.83 251.359 3994.24 256.726 4016.56 267.459C4038.89 278.193 4056.28 293.649 4068.73 313.827C4081.61 333.577 4088.05 357.19 4088.05 384.668C4088.05 413.433 4079.25 437.476 4061.64 456.796C4044.04 475.686 4023.43 487.922 3999.82 493.504V496.08C4017.42 498.656 4035.03 505.096 4052.63 515.4C4070.23 525.704 4084.83 540.086 4096.42 558.548C4108.01 576.58 4113.81 599.12 4113.81 626.168C4113.81 655.792 4106.72 681.552 4092.56 703.448C4078.82 725.344 4059.5 742.517 4034.6 754.968C4009.7 766.989 3981.14 773 3948.94 773H3684.26ZM3758.32 709.888H3933.49C3966.98 709.888 3993.17 702.16 4012.06 686.704C4030.95 671.248 4040.39 649.137 4040.39 620.372C4040.39 591.177 4030.95 569.281 4012.06 554.684C3993.17 540.086 3967.19 532.788 3934.13 532.788H3758.32V709.888ZM3758.32 472.252H3928.34C3955.38 472.252 3976.42 465.382 3991.45 451.644C4006.9 437.905 4014.63 418.585 4014.63 393.684C4014.63 367.924 4006.9 348.389 3991.45 335.079C3976.42 321.341 3955.38 314.471 3928.34 314.471H3758.32V472.252Z" fill="white"/>
</svg>
